<svg id="Layer_1" data-name="Layer 1" xmlns="http://www.w3.org/2000/svg" xmlns:xlink="http://www.w3.org/1999/xlink" viewBox="0 0 164.13 164.13"><defs><style>.cls-1,.cls-3,.cls-4,.cls-5,.cls-6,.cls-7,.cls-8{stroke-miterlimit:10;}.cls-1{fill:url(#White_Black);}.cls-1,.cls-3{stroke:url(#White_Black-2);}.cls-2{fill:url(#Orange_Yellow);}.cls-3,.cls-5{fill:none;}.cls-4{fill:#fff;}.cls-4,.cls-5,.cls-6,.cls-7,.cls-8{stroke:#231f20;}.cls-10,.cls-5,.cls-9{stroke-width:3px;}.cls-6{fill:url(#White_Black-4);}.cls-7{fill:url(#White_Black-5);}.cls-8{fill:url(#White_Black-6);}.cls-10,.cls-9{stroke:#010101;stroke-linecap:round;stroke-linejoin:round;}.cls-9{fill:url(#White_Black-7);}.cls-10{fill:url(#White_Black-8);}</style><linearGradient id="White_Black" x1="3.05" y1="82.06" x2="161.08" y2="82.06" gradientUnits="userSpaceOnUse"><stop offset="0" stop-color="#fff"/><stop offset="1" stop-color="#231f20"/></linearGradient><linearGradient id="White_Black-2" x1="2.55" y1="82.06" x2="161.58" y2="82.06" xlink:href="#White_Black"/><linearGradient id="Orange_Yellow" x1="3.05" y1="82.06" x2="161.08" y2="82.06" gradientUnits="userSpaceOnUse"><stop offset="0" stop-color="#fff33b"/><stop offset="0.04" stop-color="#fee72e"/><stop offset="0.12" stop-color="#fed51b"/><stop offset="0.2" stop-color="#fdca10"/><stop offset="0.28" stop-color="#fdc70c"/><stop offset="0.67" stop-color="#f3903f"/><stop offset="0.89" stop-color="#ed683c"/><stop offset="1" stop-color="#e93e3a"/></linearGradient><linearGradient id="White_Black-4" x1="52.66" y1="79.2" x2="86.26" y2="79.2" xlink:href="#White_Black"/><linearGradient id="White_Black-5" x1="92.4" y1="108.78" x2="126" y2="108.78" xlink:href="#White_Black"/><linearGradient id="White_Black-6" x1="129.74" y1="79.2" x2="163.34" y2="79.2" xlink:href="#White_Black"/><linearGradient id="White_Black-7" x1="132.96" y1="96.48" x2="137.92" y2="96.48" xlink:href="#White_Black"/><linearGradient id="White_Black-8" x1="54.54" y1="149.56" x2="157.78" y2="149.56" xlink:href="#White_Black"/></defs><rect class="cls-1" x="3.05" y="3.05" width="158.03" height="158.03" rx="21.28"/><circle class="cls-2" cx="82.06" cy="82.06" r="79.02"/><circle class="cls-3" cx="82.06" cy="82.06" r="79.02"/><path class="cls-4" d="M0,216" transform="translate(-25.94 -25.94)"/><rect class="cls-5" x="1.5" y="1.5" width="161.13" height="161.13" rx="24.12"/><path class="cls-6" d="M86.26,91.2h-4.8V96h-24V91.2h-4.8v-24h4.8V62.4h24v4.8h4.8Zm-9.6,0v-24H62.26v24Z" transform="translate(-25.94 -25.94)"/><path class="cls-7" d="M126,96.78H102v9.6h19.2v4.8H102v14.4H92.4V92H126Z" transform="translate(-25.94 -25.94)"/><path class="cls-8" d="M163.34,91.2h-4.8V96h-19.2V91.2h-4.8V86.4h-4.8V72h4.8V67.2h4.8V62.4h19.2v4.8h4.8V72h-9.6V67.2h-9.6V72h-4.8V86.4h4.8v4.8h9.6V86.4h9.6Z" transform="translate(-25.94 -25.94)"/><g id="line"><line class="cls-9" x1="132.96" y1="99.72" x2="137.92" y2="93.24"/><path class="cls-10" d="M101.45,171C81,169.78,58.12,152.84,54.54,131.41l2-3.09c27.5,21.62,62.32,25.09,94.54-.25,1.48,1.47,6.72,5.67,6.72,5.67-12.67,27.59-33.86,38.53-56.32,37.21Z" transform="translate(-25.94 -25.94)"/></g></svg>